<svg width="800" height="600" viewBox="0 0 800 600" fill="none" xmlns="http://www.w3.org/2000/svg">
<rect width="800" height="600" fill="#F8EBDD"/>
<circle cx="655" cy="111" r="122" fill="#E9C49D"/>
<circle cx="136" cy="121" r="104" fill="#F2D4B3"/>
<ellipse cx="398" cy="514" rx="228" ry="58" fill="#D0A37C"/>
<rect x="284" y="120" width="240" height="298" rx="54" fill="#E4D1C0"/>
<rect x="305" y="140" width="198" height="258" rx="38" fill="#FDF5EE"/>
<path d="M319 262C319 232.729 342.729 209 372 209H437C466.271 209 490 232.729 490 262V287C490 332.84 452.84 370 407 370H402C356.16 370 319 332.84 319 287V262Z" fill="#C88754"/>
<path d="M319 227H490V262H319V227Z" fill="#E8D7C7"/>
<circle cx="405" cy="198" r="62" fill="#FFF7F1"/>
<circle cx="359" cy="204" r="42" fill="#FFF7F1"/>
<circle cx="450" cy="204" r="42" fill="#FFF7F1"/>
<circle cx="389" cy="171" r="40" fill="#FFF7F1"/>
<path d="M331 225C331 201.252 350.252 182 374 182H435C458.748 182 478 201.252 478 225V227H331V225Z" fill="#FFF7F1"/>
<path d="M346 264C346 256.268 352.268 250 360 250H449C456.732 250 463 256.268 463 264V278C463 312.794 434.794 341 400 341H409C374.206 341 346 312.794 346 278V264Z" fill="#C67F49"/>
<path d="M332 302C362.159 274.497 389.992 293.345 405.132 313.191C420.273 333.038 449.824 340.63 486 296" stroke="#8F4F2F" stroke-width="14" stroke-linecap="round"/>
<rect x="362" y="422" width="84" height="46" rx="16" fill="#FDF5EE"/>
</svg>
