<svg width="800" height="600" viewBox="0 0 800 600" fill="none" xmlns="http://www.w3.org/2000/svg">
<rect width="800" height="600" fill="#F6EBDD"/>
<circle cx="644" cy="121" r="124" fill="#E9C39C"/>
<ellipse cx="400" cy="506" rx="224" ry="58" fill="#D2A178"/>
<path d="M246 205C246 167.997 275.997 138 313 138H502C539.003 138 569 167.997 569 205V308C569 400.783 493.783 476 401 476C308.217 476 233 400.783 233 308V205H246Z" fill="#FFF7F0"/>
<path d="M274 223C274 193.729 297.729 170 327 170H486C515.271 170 539 193.729 539 223V308C539 384.216 477.216 446 401 446C324.784 446 263 384.216 263 308V223H274Z" fill="#8F4F2F"/>
<path d="M299 150C299 116.863 325.863 90 359 90H443C476.137 90 503 116.863 503 150V171H299V150Z" fill="#FFF7F0"/>
<path d="M324 243C324 225.327 338.327 211 356 211H446C463.673 211 478 225.327 478 243V287C478 329.526 443.526 364 401 364C358.474 364 324 329.526 324 287V243Z" fill="#6B3720"/>
<path d="M556 216C591.346 216 620 244.654 620 280C620 315.346 591.346 344 556 344" stroke="#FFF7F0" stroke-width="18"/>
<path d="M356 173V145C356 127.879 369.879 114 387 114C404.121 114 418 127.879 418 145V173" stroke="#6B3720" stroke-width="14" stroke-linecap="round"/>
</svg>
