<svg width="800" height="600" viewBox="0 0 800 600" fill="none" xmlns="http://www.w3.org/2000/svg">
<rect width="800" height="600" fill="#F7EBDF"/>
<circle cx="643" cy="109" r="124" fill="#E9C6A3"/>
<circle cx="151" cy="483" r="142" fill="#DFB48C"/>
<ellipse cx="401" cy="511" rx="223" ry="58" fill="#D3A178"/>
<ellipse cx="405" cy="241" rx="173" ry="118" fill="#FFF6ED"/>
<path d="M232 241C232 175.83 309.83 123 405 123C500.17 123 578 175.83 578 241V284C578 352.814 522.814 408 454 408H356C287.186 408 232 352.814 232 284V241Z" fill="#FFF6ED"/>
<path d="M271 253C271 207.161 308.161 170 354 170H456C501.839 170 539 207.161 539 253V282C539 337.228 494.228 382 439 382H371C315.772 382 271 337.228 271 282V253Z" fill="#6A3B28"/>
<path d="M288 260C288 223.549 317.549 194 354 194H456C492.451 194 522 223.549 522 260V283C522 328.84 484.84 366 439 366H371C325.16 366 288 328.84 288 283V260Z" fill="#8F553E"/>
<path d="M278 217C278 185.52 303.52 160 335 160H475C506.48 160 532 185.52 532 217V229H278V217Z" fill="#FFF6ED"/>
<path d="M575 217C612.003 217 642 247 642 284C642 321.003 612.003 351 575 351" stroke="#FFF6ED" stroke-width="20"/>
<path d="M350 222C373.282 196.479 428.577 180.229 463.164 222" stroke="#D89B5A" stroke-width="16" stroke-linecap="round"/>
<path d="M347 267C372.982 290.845 432.808 290.111 464 255" stroke="#F1D6B0" stroke-width="14" stroke-linecap="round"/>
<path d="M351 299C376.09 325.629 426.763 326.626 455 302" stroke="#F7E5CB" stroke-width="14" stroke-linecap="round"/>
</svg>
