<svg width="800" height="600" viewBox="0 0 800 600" fill="none" xmlns="http://www.w3.org/2000/svg">
<rect width="800" height="600" fill="#F3E7DA"/>
<circle cx="131" cy="113" r="104" fill="#D7BBA2"/>
<circle cx="652" cy="147" r="131" fill="#E8C8A9"/>
<ellipse cx="396" cy="514" rx="226" ry="56" fill="#D2A782"/>
<path d="M296 155H515L488 437C484.824 470.154 457.005 495.5 423.699 495.5H387.301C353.995 495.5 326.176 470.154 323 437L296 155Z" fill="#F9F3EE"/>
<path d="M314 176H497L475 429C472.621 456.34 449.716 477.25 422.272 477.25H388.728C361.284 477.25 338.379 456.34 336 429L314 176Z" fill="#C9AA8E"/>
<path d="M317 176H494L482 305H329L317 176Z" fill="#E7D2BE"/>
<path d="M329 305H482L473 404C470.735 428.925 449.83 448 424.802 448H386.198C361.17 448 340.265 428.925 338 404L329 305Z" fill="#B47B52"/>
<path d="M352 187L381 232" stroke="#FFF8F1" stroke-width="14" stroke-linecap="round"/>
<path d="M412 179L448 235" stroke="#FFF8F1" stroke-width="14" stroke-linecap="round"/>
<path d="M463 187L430 235" stroke="#FFF8F1" stroke-width="14" stroke-linecap="round"/>
<rect x="274" y="147" width="264" height="28" rx="14" fill="#FFF8F1"/>
<path d="M515 155C547.585 155 574 181.415 574 214V311C574 343.585 547.585 370 515 370" stroke="#FFF8F1" stroke-width="18"/>
</svg>
