<svg width="800" height="600" viewBox="0 0 800 600" fill="none" xmlns="http://www.w3.org/2000/svg">
<rect width="800" height="600" fill="#F7E8D8"/>
<circle cx="624" cy="108" r="116" fill="#E8C098"/>
<circle cx="164" cy="516" r="160" fill="#E0B389"/>
<ellipse cx="410" cy="436" rx="206" ry="56" fill="#D4A074"/>
<path d="M227 220C227 174.16 264.16 137 310 137H505C550.84 137 588 174.16 588 220V333C588 414.186 522.186 480 441 480H374C292.814 480 227 414.186 227 333V220Z" fill="#FCF6F0"/>
<rect x="542" y="209" width="74" height="144" rx="37" fill="#FCF6F0"/>
<path d="M262 231C262 205.043 283.043 184 309 184H505C530.957 184 552 205.043 552 231V326C552 384.542 504.542 432 446 432H368C309.458 432 262 384.542 262 326V231Z" fill="#402117"/>
<path d="M283 237C283 222.088 295.088 210 310 210H503C517.912 210 530 222.088 530 237V321C530 367.944 491.944 406 445 406H368C321.056 406 283 367.944 283 321V237Z" fill="#6B3720"/>
<path d="M301 249C301 240.163 308.163 233 317 233H496C504.837 233 512 240.163 512 249V318C512 355.555 481.555 386 444 386H369C331.445 386 301 355.555 301 318V249Z" fill="#7B4330"/>
<path d="M301 263C301 254.163 308.163 247 317 247H496C504.837 247 512 254.163 512 263V310C512 347.555 481.555 378 444 378H369C331.445 378 301 347.555 301 310V263Z" fill="#8C513D"/>
<rect x="326" y="266" width="166" height="12" rx="6" fill="#B67251" opacity="0.45"/>
<path d="M378 151C378 125.042 357 103.999 331 104V113C351.029 113.001 368 129.972 368 150V188H378V151Z" fill="#6B3720"/>
<path d="M430 133C430 110.909 412.091 93 390 93V102C407.121 102 421 115.879 421 133V188H430V133Z" fill="#6B3720"/>
<path d="M482 145C482 124.565 465.435 108 445 108V117C460.464 117 473 129.536 473 145V188H482V145Z" fill="#6B3720"/>
</svg>
