<svg width="800" height="600" viewBox="0 0 800 600" fill="none" xmlns="http://www.w3.org/2000/svg">
<rect width="800" height="600" fill="#F6E9DA"/>
<circle cx="642" cy="126" r="126" fill="#E7BC91"/>
<circle cx="144" cy="494" r="146" fill="#DEB086"/>
<ellipse cx="402" cy="510" rx="220" ry="56" fill="#D29D73"/>
<path d="M242 187C242 161.043 263.043 140 289 140H528C553.957 140 575 161.043 575 187V311C575 402.127 501.127 476 410 476C318.873 476 245 402.127 245 311V187H242Z" fill="#FFF7F0"/>
<path d="M270 202C270 184.327 284.327 170 302 170H516C533.673 170 548 184.327 548 202V307C548 383.216 486.216 445 410 445C333.784 445 272 383.216 272 307V202H270Z" fill="#3E2219"/>
<path d="M292 220C292 210.059 300.059 202 310 202H507C516.941 202 525 210.059 525 220V300C525 363.513 473.513 415 410 415C346.487 415 295 363.513 295 300V220H292Z" fill="#6A3928"/>
<path d="M308 236C308 229.373 313.373 224 320 224H500C506.627 224 512 229.373 512 236V296C512 352.333 466.333 398 410 398C353.667 398 308 352.333 308 296V236Z" fill="#8B513A"/>
<path d="M308 252H512V274H308V252Z" fill="#A8664A" opacity="0.55"/>
<path d="M334 159C334 128.072 359.072 103 390 103H398C428.928 103 454 128.072 454 159V183H334V159Z" fill="#FFF7F0"/>
<path d="M362 155C362 139.536 374.536 127 390 127H398C413.464 127 426 139.536 426 155V183H362V155Z" fill="#FFF7F0"/>
<path d="M402 333C431.667 307.667 456 321 473 341" stroke="#D89B5A" stroke-width="18" stroke-linecap="round"/>
<path d="M350 333C379.667 307.667 404 321 421 341" stroke="#D89B5A" stroke-width="18" stroke-linecap="round"/>
</svg>
